<?xml version="1.0" encoding="utf-8"?><svg viewBox="0 0 40.375 38.063" xmlns="http://www.w3.org/2000/svg" xmlns:xlink="http://www.w3.org/1999/xlink"><style>:root>svg{display:none}:root>svg:target{display:block}</style><svg viewBox="0 0 38.562 38.063" id="Icon-Basket" xmlns="http://www.w3.org/2000/svg"><path d="M2.758 16.05h33.04l-1.271 22.027h-30.5zm.689-6.883H35.11a3.442 3.442 0 110 6.883H3.45a3.442 3.442 0 110-6.883zM1.382 16.05h35.793v1.376H1.382V16.05zm17.9 6.883a1.376 1.376 0 011.377 1.377v8.26a1.377 1.377 0 11-2.753 0v-8.26a1.376 1.376 0 011.372-1.377zm8.26 0a1.377 1.377 0 011.377 1.377v8.26a1.377 1.377 0 01-2.754 0v-8.26a1.377 1.377 0 011.373-1.377zm-16.52 0a1.377 1.377 0 011.377 1.377v8.26a1.377 1.377 0 11-2.753 0v-8.26a1.376 1.376 0 011.372-1.377zM23.068.36a2.753 2.753 0 013.761 1.007l4.13 7.154a2.753 2.753 0 11-4.769 2.753l-4.13-7.153A2.754 2.754 0 0123.064.36zm-7.572 0a2.753 2.753 0 00-3.761 1.007l-4.13 7.154a2.753 2.753 0 004.769 2.753l4.13-7.153A2.754 2.754 0 0015.492.36z"/></svg><svg viewBox="0 0 40.375 33.625" id="Icon-Laptop" xmlns="http://www.w3.org/2000/svg"><path d="M6.731-.006h26.908a4.036 4.036 0 014.036 4.036v17.49a4.036 4.036 0 01-4.036 4.036H6.731a4.036 4.036 0 01-4.036-4.036V4.03A4.036 4.036 0 016.731-.006zM2.695 22.865h4.036v2.691H2.695v-2.691zm30.944 0h4.036v2.691h-4.036v-2.691zM6.731 4.03h26.908v24.216H6.731V4.03zM2.695 28.246h34.98a2.691 2.691 0 012.691 2.691c0 1.486-2.551 2.691-4.037 2.691H4.041c-1.486 0-4.036-1.2-4.036-2.691a2.69 2.69 0 012.69-2.691zm13.454 2.691h8.072a.841.841 0 110 1.345h-8.072a.841.841 0 110-1.345zm-5-15.159l1.894-1.9a1.336 1.336 0 011.894 0l4.735 4.757a1.349 1.349 0 010 1.9l-1.894 1.9a1.336 1.336 0 01-1.894 0l-4.735-4.756a1.35 1.35 0 01.003-1.901zm16.167-7.447l1.9 1.9a1.35 1.35 0 010 1.9L18.798 22.595a1.335 1.335 0 01-1.9 0l-1.894-1.9a1.35 1.35 0 010-1.9L25.422 8.331a1.334 1.334 0 011.897 0z"/></svg><svg viewBox="0 0 28 37.344" id="Icon-Locked" xmlns="http://www.w3.org/2000/svg"><path d="M13.99.008c5.16 0 9.34 3.656 9.34 8.166v19.833c0 4.51-4.18 8.166-9.34 8.166s-9.33-3.656-9.33-8.166V8.175c0-4.511 4.18-8.167 9.33-8.167zm0 4.666c2.58 0 4.67 1.568 4.67 3.5v8.166c0 1.934-2.09 3.5-4.67 3.5s-4.66-1.566-4.66-3.5V8.175c0-1.933 2.09-3.5 4.66-3.5zM3.5 17.507h20.99a3.5 3.5 0 013.5 3.5V33.84a3.5 3.5 0 01-3.5 3.5H3.5a3.5 3.5 0 01-3.5-3.5V21.007a3.5 3.5 0 013.5-3.5zm10.49 5.833a2.338 2.338 0 012.34 2.333v5.833a2.335 2.335 0 01-4.67 0v-5.831a2.336 2.336 0 012.33-2.335zm0-2.333a4.667 4.667 0 11-4.66 4.666 4.668 4.668 0 014.66-4.666z"/></svg></svg>